<mxfile host="app.diagrams.net" modified="2021-09-08T08:50:57.543Z" agent="5.0 (Windows NT 10.0; WOW64) AppleWebKit/537.36 (KHTML, like Gecko) Chrome/92.0.4515.159 Safari/537.36" etag="TXUSxiqI-ZxQ5FzXu4Gz" version="15.1.0" type="github">
  <diagram id="GJ_m-g7LKd7bqzkbGVr6" name="第 1 页">
    <mxGraphModel dx="928" dy="578" grid="1" gridSize="10" guides="1" tooltips="1" connect="1" arrows="1" fold="1" page="1" pageScale="1" pageWidth="827" pageHeight="1169" math="0" shadow="0">
      <root>
        <mxCell id="0" />
        <mxCell id="1" parent="0" />
        <mxCell id="oxG3nvHUig9ZcdrEMHEQ-4" style="edgeStyle=orthogonalEdgeStyle;rounded=0;orthogonalLoop=1;jettySize=auto;html=1;entryX=0.5;entryY=0;entryDx=0;entryDy=0;fillColor=#d5e8d4;strokeColor=#82b366;strokeWidth=3;" parent="1" source="oxG3nvHUig9ZcdrEMHEQ-2" target="oxG3nvHUig9ZcdrEMHEQ-3" edge="1">
          <mxGeometry relative="1" as="geometry">
            <Array as="points">
              <mxPoint x="184" y="200" />
              <mxPoint x="539" y="200" />
            </Array>
          </mxGeometry>
        </mxCell>
        <mxCell id="I7B_qsBlBVq_uiybtzzI-7" style="edgeStyle=orthogonalEdgeStyle;rounded=0;orthogonalLoop=1;jettySize=auto;html=1;entryX=1;entryY=0.5;entryDx=0;entryDy=0;strokeWidth=4;fillColor=#ffe6cc;strokeColor=#d79b00;" edge="1" parent="1" source="oxG3nvHUig9ZcdrEMHEQ-2" target="I7B_qsBlBVq_uiybtzzI-6">
          <mxGeometry relative="1" as="geometry" />
        </mxCell>
        <mxCell id="oxG3nvHUig9ZcdrEMHEQ-2" value="real_A&lt;br&gt;训练的A样本" style="rounded=1;whiteSpace=wrap;html=1;fillColor=#ffe6cc;strokeColor=#d79b00;strokeWidth=4;" parent="1" vertex="1">
          <mxGeometry x="144" y="260" width="90" height="50" as="geometry" />
        </mxCell>
        <mxCell id="oxG3nvHUig9ZcdrEMHEQ-11" style="edgeStyle=orthogonalEdgeStyle;rounded=0;orthogonalLoop=1;jettySize=auto;html=1;entryX=0.5;entryY=1;entryDx=0;entryDy=0;exitX=0.5;exitY=1;exitDx=0;exitDy=0;fillColor=#fff2cc;strokeColor=#d6b656;strokeWidth=4;" parent="1" source="oxG3nvHUig9ZcdrEMHEQ-13" target="oxG3nvHUig9ZcdrEMHEQ-14" edge="1">
          <mxGeometry relative="1" as="geometry">
            <Array as="points">
              <mxPoint x="539" y="420" />
              <mxPoint x="189" y="420" />
            </Array>
          </mxGeometry>
        </mxCell>
        <mxCell id="oxG3nvHUig9ZcdrEMHEQ-25" style="edgeStyle=orthogonalEdgeStyle;rounded=0;orthogonalLoop=1;jettySize=auto;html=1;entryX=1;entryY=0.5;entryDx=0;entryDy=0;fillColor=#fff2cc;strokeColor=#d6b656;strokeWidth=3;" parent="1" source="oxG3nvHUig9ZcdrEMHEQ-3" target="oxG3nvHUig9ZcdrEMHEQ-24" edge="1">
          <mxGeometry relative="1" as="geometry" />
        </mxCell>
        <mxCell id="oxG3nvHUig9ZcdrEMHEQ-3" value="fake_B" style="rounded=1;whiteSpace=wrap;html=1;fillColor=#d5e8d4;strokeColor=#82b366;dashed=1;strokeWidth=3;" parent="1" vertex="1">
          <mxGeometry x="494" y="260" width="90" height="50" as="geometry" />
        </mxCell>
        <mxCell id="oxG3nvHUig9ZcdrEMHEQ-6" value="&lt;font&gt;&lt;font style=&quot;font-size: 14px&quot;&gt;netG_A&lt;br&gt;负责把A转换为B&lt;/font&gt;&lt;br&gt;&lt;/font&gt;" style="text;html=1;align=center;verticalAlign=middle;resizable=0;points=[];autosize=1;strokeColor=none;fillColor=none;" parent="1" vertex="1">
          <mxGeometry x="180" y="80" width="120" height="40" as="geometry" />
        </mxCell>
        <mxCell id="oxG3nvHUig9ZcdrEMHEQ-7" value="&lt;font&gt;&lt;font style=&quot;font-size: 14px&quot;&gt;netG_B&lt;br&gt;负责把B转换为A&lt;/font&gt;&lt;br&gt;&lt;/font&gt;" style="text;html=1;align=center;verticalAlign=middle;resizable=0;points=[];autosize=1;strokeColor=none;fillColor=none;" parent="1" vertex="1">
          <mxGeometry x="180" y="130" width="120" height="40" as="geometry" />
        </mxCell>
        <mxCell id="I7B_qsBlBVq_uiybtzzI-5" style="edgeStyle=orthogonalEdgeStyle;rounded=0;orthogonalLoop=1;jettySize=auto;html=1;entryX=0;entryY=0.5;entryDx=0;entryDy=0;fillColor=#d5e8d4;strokeColor=#82b366;strokeWidth=4;" edge="1" parent="1" source="oxG3nvHUig9ZcdrEMHEQ-13" target="I7B_qsBlBVq_uiybtzzI-4">
          <mxGeometry relative="1" as="geometry" />
        </mxCell>
        <mxCell id="oxG3nvHUig9ZcdrEMHEQ-13" value="real_B&lt;br&gt;训练的B样本" style="rounded=1;whiteSpace=wrap;html=1;fillColor=#d5e8d4;strokeColor=#82b366;strokeWidth=4;" parent="1" vertex="1">
          <mxGeometry x="494" y="325" width="90" height="50" as="geometry" />
        </mxCell>
        <mxCell id="oxG3nvHUig9ZcdrEMHEQ-27" style="edgeStyle=orthogonalEdgeStyle;rounded=0;orthogonalLoop=1;jettySize=auto;html=1;fillColor=#d5e8d4;strokeColor=#82b366;strokeWidth=3;" parent="1" source="oxG3nvHUig9ZcdrEMHEQ-14" edge="1">
          <mxGeometry relative="1" as="geometry">
            <mxPoint x="380" y="347.5" as="targetPoint" />
          </mxGeometry>
        </mxCell>
        <mxCell id="oxG3nvHUig9ZcdrEMHEQ-14" value="fake_A" style="rounded=1;whiteSpace=wrap;html=1;fillColor=#ffe6cc;strokeColor=#d79b00;dashed=1;strokeWidth=4;" parent="1" vertex="1">
          <mxGeometry x="144" y="325" width="90" height="45" as="geometry" />
        </mxCell>
        <mxCell id="oxG3nvHUig9ZcdrEMHEQ-24" value="rect_A" style="rounded=1;whiteSpace=wrap;html=1;fillColor=#ffe6cc;strokeColor=#d79b00;strokeWidth=4;dashed=1;" parent="1" vertex="1">
          <mxGeometry x="240" y="260" width="90" height="50" as="geometry" />
        </mxCell>
        <mxCell id="oxG3nvHUig9ZcdrEMHEQ-26" value="rec_B" style="rounded=1;whiteSpace=wrap;html=1;fillColor=#d5e8d4;strokeColor=#82b366;strokeWidth=4;dashed=1;" parent="1" vertex="1">
          <mxGeometry x="390" y="325" width="90" height="50" as="geometry" />
        </mxCell>
        <mxCell id="oxG3nvHUig9ZcdrEMHEQ-29" value="" style="endArrow=none;html=1;strokeWidth=3;fillColor=#d5e8d4;strokeColor=#82b366;" parent="1" edge="1">
          <mxGeometry width="50" height="50" relative="1" as="geometry">
            <mxPoint x="305" y="99.5" as="sourcePoint" />
            <mxPoint x="361" y="99.5" as="targetPoint" />
          </mxGeometry>
        </mxCell>
        <mxCell id="oxG3nvHUig9ZcdrEMHEQ-30" value="" style="endArrow=none;html=1;strokeWidth=3;fillColor=#ffe6cc;strokeColor=#d79b00;" parent="1" edge="1">
          <mxGeometry width="50" height="50" relative="1" as="geometry">
            <mxPoint x="305" y="149.5" as="sourcePoint" />
            <mxPoint x="361" y="149.5" as="targetPoint" />
          </mxGeometry>
        </mxCell>
        <mxCell id="I7B_qsBlBVq_uiybtzzI-1" value="&lt;font&gt;&lt;font style=&quot;font-size: 14px&quot;&gt;netD_A&lt;br&gt;负责判定B的真假&lt;/font&gt;&lt;br&gt;&lt;/font&gt;" style="text;html=1;align=center;verticalAlign=middle;resizable=0;points=[];autosize=1;strokeColor=none;fillColor=none;" vertex="1" parent="1">
          <mxGeometry x="445" y="80" width="120" height="40" as="geometry" />
        </mxCell>
        <mxCell id="I7B_qsBlBVq_uiybtzzI-2" value="&lt;font&gt;&lt;font style=&quot;font-size: 14px&quot;&gt;netD_B&lt;br&gt;负责判定A的真假&lt;/font&gt;&lt;br&gt;&lt;/font&gt;" style="text;html=1;align=center;verticalAlign=middle;resizable=0;points=[];autosize=1;strokeColor=none;fillColor=none;" vertex="1" parent="1">
          <mxGeometry x="445" y="130" width="120" height="40" as="geometry" />
        </mxCell>
        <mxCell id="I7B_qsBlBVq_uiybtzzI-4" value="idt_A" style="rounded=1;whiteSpace=wrap;html=1;fillColor=#d5e8d4;strokeColor=#82b366;strokeWidth=4;dashed=1;" vertex="1" parent="1">
          <mxGeometry x="620" y="324.5" width="90" height="50" as="geometry" />
        </mxCell>
        <mxCell id="I7B_qsBlBVq_uiybtzzI-6" value="idt_B" style="rounded=1;whiteSpace=wrap;html=1;fillColor=#ffe6cc;strokeColor=#d79b00;strokeWidth=4;dashed=1;" vertex="1" parent="1">
          <mxGeometry x="20" y="260" width="90" height="50" as="geometry" />
        </mxCell>
      </root>
    </mxGraphModel>
  </diagram>
</mxfile>
